REM DIRINDEX 1\3,1\4,1\5,1\6,1\2\7,1\2\8,1\2\9,1\10
REM DIRNAME cjc056,folder01,folder02,folder03,folder04,folder05,folder06,folder07,folder08,folder09
TITLE ""
FILE "2-19 Level 4-698-708.mp3" MP3
  TRACK 01 AUDIO
    TITLE "0:"
    INDEX 01 00:00:00
  TRACK 02 AUDIO
    TITLE "10:cjc056_2379"
    INDEX 01 00:00:01
  TRACK 03 AUDIO
    TITLE "0:"
    INDEX 01 00:03:17
  TRACK 04 AUDIO
    TITLE "7:cjc056_2380"
    INDEX 01 00:03:63
  TRACK 05 AUDIO
    TITLE "0:"
    INDEX 01 00:05:12
  TRACK 06 AUDIO
    TITLE "8:cjc056_2381"
    INDEX 01 00:05:24
  TRACK 07 AUDIO
    TITLE "0:"
    INDEX 01 00:06:39
  TRACK 08 AUDIO
    TITLE "9:cjc056_2382"
    INDEX 01 00:06:53
  TRACK 09 AUDIO
    TITLE "0:"
    INDEX 01 00:09:47
  TRACK 10 AUDIO
    TITLE "7:cjc056_2383"
    INDEX 01 00:10:23
  TRACK 11 AUDIO
    TITLE "0:"
    INDEX 01 00:11:46
  TRACK 12 AUDIO
    TITLE "8:cjc056_2384"
    INDEX 01 00:11:60
  TRACK 13 AUDIO
    TITLE "0:"
    INDEX 01 00:12:67
  TRACK 14 AUDIO
    TITLE "9:cjc056_2385"
    INDEX 01 00:13:06
  TRACK 15 AUDIO
    TITLE "0:"
    INDEX 01 00:15:30
  TRACK 16 AUDIO
    TITLE "7:cjc056_2386"
    INDEX 01 00:16:06
  TRACK 17 AUDIO
    TITLE "0:"
    INDEX 01 00:17:61
  TRACK 18 AUDIO
    TITLE "8:cjc056_2387"
    INDEX 01 00:17:70
  TRACK 19 AUDIO
    TITLE "0:"
    INDEX 01 00:20:20
  TRACK 20 AUDIO
    TITLE "9:cjc056_2388"
    INDEX 01 00:20:36
  TRACK 21 AUDIO
    TITLE "0:"
    INDEX 01 00:22:68
  TRACK 22 AUDIO
    TITLE "7:cjc056_2389"
    INDEX 01 00:23:44
  TRACK 23 AUDIO
    TITLE "0:"
    INDEX 01 00:24:57
  TRACK 24 AUDIO
    TITLE "8:cjc056_2390"
    INDEX 01 00:24:71
  TRACK 25 AUDIO
    TITLE "0:"
    INDEX 01 00:26:48
  TRACK 26 AUDIO
    TITLE "9:cjc056_2391"
    INDEX 01 00:26:62
  TRACK 27 AUDIO
    TITLE "0:"
    INDEX 01 00:29:11
  TRACK 28 AUDIO
    TITLE "7:cjc056_2392"
    INDEX 01 00:29:58
  TRACK 29 AUDIO
    TITLE "0:"
    INDEX 01 00:30:73
  TRACK 30 AUDIO
    TITLE "8:cjc056_2393"
    INDEX 01 00:31:10
  TRACK 31 AUDIO
    TITLE "0:"
    INDEX 01 00:32:56
  TRACK 32 AUDIO
    TITLE "9:cjc056_2394"
    INDEX 01 00:32:70
  TRACK 33 AUDIO
    TITLE "0:"
    INDEX 01 00:35:31
  TRACK 34 AUDIO
    TITLE "7:cjc056_2395"
    INDEX 01 00:36:03
  TRACK 35 AUDIO
    TITLE "0:"
    INDEX 01 00:37:28
  TRACK 36 AUDIO
    TITLE "8:cjc056_2396"
    INDEX 01 00:37:42
  TRACK 37 AUDIO
    TITLE "0:"
    INDEX 01 00:38:65
  TRACK 38 AUDIO
    TITLE "9:cjc056_2397"
    INDEX 01 00:39:00
  TRACK 39 AUDIO
    TITLE "0:"
    INDEX 01 00:41:30
  TRACK 40 AUDIO
    TITLE "7:cjc056_2398"
    INDEX 01 00:42:06
  TRACK 41 AUDIO
    TITLE "0:"
    INDEX 01 00:43:21
  TRACK 42 AUDIO
    TITLE "8:cjc056_2399"
    INDEX 01 00:43:39
  TRACK 43 AUDIO
    TITLE "0:"
    INDEX 01 00:45:49
  TRACK 44 AUDIO
    TITLE "9:cjc056_2400"
    INDEX 01 00:45:65
  TRACK 45 AUDIO
    TITLE "0:"
    INDEX 01 00:48:36
  TRACK 46 AUDIO
    TITLE "7:cjc056_2401"
    INDEX 01 00:49:04
  TRACK 47 AUDIO
    TITLE "0:"
    INDEX 01 00:50:33
  TRACK 48 AUDIO
    TITLE "8:cjc056_2402"
    INDEX 01 00:50:44
  TRACK 49 AUDIO
    TITLE "0:"
    INDEX 01 00:52:55
  TRACK 50 AUDIO
    TITLE "9:cjc056_2403"
    INDEX 01 00:52:67
  TRACK 51 AUDIO
    TITLE "0:"
    INDEX 01 00:54:62
  TRACK 52 AUDIO
    TITLE "7:cjc056_2404"
    INDEX 01 00:55:38
  TRACK 53 AUDIO
    TITLE "0:"
    INDEX 01 00:57:07
  TRACK 54 AUDIO
    TITLE "8:cjc056_2405"
    INDEX 01 00:57:17
  TRACK 55 AUDIO
    TITLE "0:"
    INDEX 01 00:59:69
  TRACK 56 AUDIO
    TITLE "9:cjc056_2406"
    INDEX 01 01:00:08
  TRACK 57 AUDIO
    TITLE "0:"
    INDEX 01 01:02:32
  TRACK 58 AUDIO
    TITLE "7:cjc056_2407"
    INDEX 01 01:03:06
  TRACK 59 AUDIO
    TITLE "0:"
    INDEX 01 01:04:21
  TRACK 60 AUDIO
    TITLE "8:cjc056_2408"
    INDEX 01 01:04:37
  TRACK 61 AUDIO
    TITLE "0:"
    INDEX 01 01:06:16
  TRACK 62 AUDIO
    TITLE "9:cjc056_2409"
    INDEX 01 01:06:30
  TRACK 63 AUDIO
    TITLE "0:"
    INDEX 01 01:09:32
  TRACK 64 AUDIO
    TITLE "7:cjc056_2410"
    INDEX 01 01:09:73
  TRACK 65 AUDIO
    TITLE "0:"
    INDEX 01 01:11:21
  TRACK 66 AUDIO
    TITLE "8:cjc056_2411"
    INDEX 01 01:11:33
  TRACK 67 AUDIO
    TITLE "0:"
    INDEX 01 01:13:49
  TRACK 68 AUDIO
    TITLE "9:cjc056_2412"
    INDEX 01 01:13:63
  TRACK 69 AUDIO
    TITLE "0:"
    INDEX 01 01:16:42
